<svg width="248pt" height="332pt"
 viewBox="0.00 0.00 247.50 332.00" xmlns="http://www.w3.org/2000/svg" xmlns:xlink="http://www.w3.org/1999/xlink">
<g id="graph0" class="graph" transform="scale(1 1) rotate(0) translate(4 328)">
<title>H</title>
<polygon fill="#ffffff" stroke="transparent" points="-4,4 -4,-328 243.5,-328 243.5,4 -4,4"/>
<!-- University -->
<g id="node1" class="node">
<title>University</title>
<polygon fill="none" stroke="#000000" points="81,-300 81,-318 129,-318 129,-300 81,-300"/>
<text text-anchor="start" x="83.8935" y="-306" font-family="Times,serif" font-size="10.00" fill="#000000">University</text>
<polygon fill="none" stroke="#000000" points="81,-294 81,-300 129,-300 129,-294 81,-294"/>
</g>
<!-- Student -->
<g id="node2" class="node">
<title>Student</title>
<polygon fill="none" stroke="#000000" points="8,-230 8,-248 114,-248 114,-230 8,-230"/>
<text text-anchor="start" x="45.722" y="-236" font-family="Times,serif" font-size="10.00" fill="#000000">Student</text>
<polygon fill="none" stroke="#000000" points="8,-188 8,-230 114,-230 114,-188 8,-188"/>
<text text-anchor="start" x="11" y="-218" font-family="Times,serif" font-size="10.00" fill="#000000">name :String</text>
<text text-anchor="start" x="11" y="-206" font-family="Times,serif" font-size="10.00" fill="#000000">motivationpoints :double</text>
<text text-anchor="start" x="11" y="-194" font-family="Times,serif" font-size="10.00" fill="#000000">creditpoints :double</text>
</g>
<!-- Student&#45;&gt;University -->
<g id="edge1" class="edge">
<title>Student&#45;&gt;University</title>
<path fill="none" stroke="#000000" d="M78.0115,-252.0231C84.1056,-264.2112 90.7387,-277.4775 95.904,-287.808"/>
<text text-anchor="middle" x="75.907" y="-278.808" font-family="Times,serif" font-size="10.00" fill="#000000">university</text>
<text text-anchor="middle" x="61.624" y="-255.0231" font-family="Times,serif" font-size="10.00" fill="#000000">students</text>
</g>
<!-- Room -->
<g id="node3" class="node">
<title>Room</title>
<polygon fill="none" stroke="#000000" points="98,-126 98,-144 163,-144 163,-126 98,-126"/>
<text text-anchor="start" x="118.276" y="-132" font-family="Times,serif" font-size="10.00" fill="#000000">Room</text>
<polygon fill="none" stroke="#000000" points="98,-96 98,-126 163,-126 163,-96 98,-96"/>
<text text-anchor="start" x="101" y="-114" font-family="Times,serif" font-size="10.00" fill="#000000">topic :String</text>
<text text-anchor="start" x="101" y="-102" font-family="Times,serif" font-size="10.00" fill="#000000">credits :double</text>
</g>
<!-- Room&#45;&gt;University -->
<g id="edge2" class="edge">
<title>Room&#45;&gt;University</title>
<path fill="none" stroke="#000000" d="M133.9245,-148.216C136.8153,-175.222 139.005,-216.9216 131,-252 128.1294,-264.5789 121.9396,-277.6415 116.3196,-287.7678"/>
<text text-anchor="middle" x="136.3166" y="-278.7678" font-family="Times,serif" font-size="10.00" fill="#000000">university</text>
<text text-anchor="middle" x="121.426" y="-151.216" font-family="Times,serif" font-size="10.00" fill="#000000">rooms</text>
</g>
<!-- Room&#45;&gt;Student -->
<g id="edge4" class="edge">
<title>Room&#45;&gt;Student</title>
<path fill="none" stroke="#000000" d="M110.2274,-148.0829C102.4221,-159.1687 93.3787,-172.0129 85.1889,-183.6448"/>
<text text-anchor="middle" x="68.8014" y="-174.6448" font-family="Times,serif" font-size="10.00" fill="#000000">students</text>
<text text-anchor="middle" x="99.6734" y="-151.0829" font-family="Times,serif" font-size="10.00" fill="#000000">room</text>
</g>
<!-- Assignment -->
<g id="node4" class="node">
<title>Assignment</title>
<polygon fill="none" stroke="#000000" points="64,-34 64,-52 126,-52 126,-34 64,-34"/>
<text text-anchor="start" x="71.1135" y="-40" font-family="Times,serif" font-size="10.00" fill="#000000">Assignment</text>
<polygon fill="none" stroke="#000000" points="64,-4 64,-34 126,-34 126,-4 64,-4"/>
<text text-anchor="start" x="67" y="-22" font-family="Times,serif" font-size="10.00" fill="#000000">topic :String</text>
<text text-anchor="start" x="67" y="-10" font-family="Times,serif" font-size="10.00" fill="#000000">points :double</text>
</g>
<!-- Assignment&#45;&gt;Student -->
<g id="edge3" class="edge">
<title>Assignment&#45;&gt;Student</title>
<path fill="none" stroke="#000000" d="M87.8616,-56.2501C85.1923,-67.3517 82.2624,-80.2327 80,-92 74.0481,-122.9573 68.8352,-158.4914 65.3828,-183.9149"/>
<text text-anchor="middle" x="50.9398" y="-174.9149" font-family="Times,serif" font-size="10.00" fill="#000000">student</text>
<text text-anchor="middle" x="78.1421" y="-59.2501" font-family="Times,serif" font-size="10.00" fill="#000000">done</text>
</g>
<!-- Assignment&#45;&gt;Room -->
<g id="edge5" class="edge">
<title>Assignment&#45;&gt;Room</title>
<path fill="none" stroke="#000000" d="M105.6913,-56.1029C109.9934,-67.4113 114.9459,-80.4293 119.2535,-91.7521"/>
<text text-anchor="middle" x="108.6995" y="-82.7521" font-family="Times,serif" font-size="10.00" fill="#000000">room</text>
<text text-anchor="middle" x="130.1323" y="-59.1029" font-family="Times,serif" font-size="10.00" fill="#000000">assignments</text>
</g>
<!-- StudyRightUtils -->
<g id="node5" class="node">
<title>StudyRightUtils</title>
<polygon fill="none" stroke="#000000" points="161,-22 161,-40 232,-40 232,-22 161,-22"/>
<text text-anchor="start" x="163.995" y="-28" font-family="Times,serif" font-size="10.00" fill="#000000">StudyRightUtils</text>
<polygon fill="none" stroke="#000000" points="161,-16 161,-22 232,-22 232,-16 161,-16"/>
</g>
</g>
</svg>
