<svg width="214pt" height="332pt"
 viewBox="0.00 0.00 213.50 332.00" xmlns="http://www.w3.org/2000/svg" xmlns:xlink="http://www.w3.org/1999/xlink">
<g id="graph0" class="graph" transform="scale(1 1) rotate(0) translate(4 328)">
<title>H</title>
<polygon fill="#ffffff" stroke="transparent" points="-4,4 -4,-328 209.5,-328 209.5,4 -4,4"/>
<!-- University -->
<g id="node1" class="node">
<title>University</title>
<polygon fill="none" stroke="#000000" points="81,-300 81,-318 129,-318 129,-300 81,-300"/>
<text text-anchor="start" x="83.8935" y="-306" font-family="Times,serif" font-size="10.00" fill="#000000">University</text>
<polygon fill="none" stroke="#000000" points="81,-294 81,-300 129,-300 129,-294 81,-294"/>
</g>
<!-- Student -->
<g id="node2" class="node">
<title>Student</title>
<polygon fill="none" stroke="#000000" points="8,-230 8,-248 114,-248 114,-230 8,-230"/>
<text text-anchor="start" x="45.722" y="-236" font-family="Times,serif" font-size="10.00" fill="#000000">Student</text>
<polygon fill="none" stroke="#000000" points="8,-188 8,-230 114,-230 114,-188 8,-188"/>
<text text-anchor="start" x="11" y="-218" font-family="Times,serif" font-size="10.00" fill="#000000">name :String</text>
<text text-anchor="start" x="11" y="-206" font-family="Times,serif" font-size="10.00" fill="#000000">motivationpoints :double</text>
<text text-anchor="start" x="11" y="-194" font-family="Times,serif" font-size="10.00" fill="#000000">creditpoints :double</text>
</g>
<!-- Student&#45;&gt;University -->
<g id="edge1" class="edge">
<title>Student&#45;&gt;University</title>
<path fill="none" stroke="#000000" d="M78.0115,-252.0231C84.1056,-264.2112 90.7387,-277.4775 95.904,-287.808"/>
<text text-anchor="middle" x="75.907" y="-278.808" font-family="Times,serif" font-size="10.00" fill="#000000">university</text>
<text text-anchor="middle" x="61.624" y="-255.0231" font-family="Times,serif" font-size="10.00" fill="#000000">students</text>
</g>
<!-- Room -->
<g id="node3" class="node">
<title>Room</title>
<polygon fill="none" stroke="#000000" points="64,-126 64,-144 129,-144 129,-126 64,-126"/>
<text text-anchor="start" x="84.276" y="-132" font-family="Times,serif" font-size="10.00" fill="#000000">Room</text>
<polygon fill="none" stroke="#000000" points="64,-96 64,-126 129,-126 129,-96 64,-96"/>
<text text-anchor="start" x="67" y="-114" font-family="Times,serif" font-size="10.00" fill="#000000">topic :String</text>
<text text-anchor="start" x="67" y="-102" font-family="Times,serif" font-size="10.00" fill="#000000">credits :double</text>
</g>
<!-- Room&#45;&gt;University -->
<g id="edge2" class="edge">
<title>Room&#45;&gt;University</title>
<path fill="none" stroke="#000000" d="M115.2862,-148.0291C121.5954,-158.7826 127.8014,-171.4849 131,-184 138.4836,-213.281 137.724,-222.5353 131,-252 128.1294,-264.5789 121.9396,-277.6415 116.3196,-287.7678"/>
<text text-anchor="middle" x="136.3166" y="-278.7678" font-family="Times,serif" font-size="10.00" fill="#000000">university</text>
<text text-anchor="middle" x="127.7847" y="-151.0291" font-family="Times,serif" font-size="10.00" fill="#000000">rooms</text>
</g>
<!-- Room&#45;&gt;Student -->
<g id="edge4" class="edge">
<title>Room&#45;&gt;Student</title>
<path fill="none" stroke="#000000" d="M79.7998,-148.0829C75.188,-159.1687 70.4995,-172.0129 66.7951,-183.6448"/>
<text text-anchor="middle" x="52.3521" y="-174.6448" font-family="Times,serif" font-size="10.00" fill="#000000">student</text>
<text text-anchor="middle" x="69.2458" y="-151.0829" font-family="Times,serif" font-size="10.00" fill="#000000">room</text>
</g>
<!-- Room&#45;&gt;Student -->
<g id="edge5" class="edge">
<title>Room&#45;&gt;Student</title>
<path fill="none" stroke="#000000" d="M92.141,-148.0829C88.8344,-159.1687 84.3485,-172.0129 79.7443,-183.6448"/>
<text text-anchor="middle" x="96.1318" y="-174.6448" font-family="Times,serif" font-size="10.00" fill="#000000">students</text>
<text text-anchor="middle" x="102.695" y="-151.0829" font-family="Times,serif" font-size="10.00" fill="#000000">room</text>
</g>
<!-- Assignment -->
<g id="node4" class="node">
<title>Assignment</title>
<polygon fill="none" stroke="#000000" points="30,-34 30,-52 92,-52 92,-34 30,-34"/>
<text text-anchor="start" x="37.1135" y="-40" font-family="Times,serif" font-size="10.00" fill="#000000">Assignment</text>
<polygon fill="none" stroke="#000000" points="30,-4 30,-34 92,-34 92,-4 30,-4"/>
<text text-anchor="start" x="33" y="-22" font-family="Times,serif" font-size="10.00" fill="#000000">topic :String</text>
<text text-anchor="start" x="33" y="-10" font-family="Times,serif" font-size="10.00" fill="#000000">points :double</text>
</g>
<!-- Assignment&#45;&gt;Student -->
<g id="edge3" class="edge">
<title>Assignment&#45;&gt;Student</title>
<path fill="none" stroke="#000000" d="M52.9368,-56.1079C50.147,-67.191 47.3763,-80.0965 46,-92 43.1414,-116.7242 43.3779,-123.2496 46,-148 47.2439,-159.7415 49.6303,-172.4084 52.1398,-183.6969"/>
<text text-anchor="middle" x="37.6968" y="-174.6969" font-family="Times,serif" font-size="10.00" fill="#000000">student</text>
<text text-anchor="middle" x="43.2173" y="-59.1079" font-family="Times,serif" font-size="10.00" fill="#000000">done</text>
</g>
<!-- Assignment&#45;&gt;Room -->
<g id="edge6" class="edge">
<title>Assignment&#45;&gt;Room</title>
<path fill="none" stroke="#000000" d="M71.6913,-56.1029C75.9934,-67.4113 80.9459,-80.4293 85.2535,-91.7521"/>
<text text-anchor="middle" x="74.6995" y="-82.7521" font-family="Times,serif" font-size="10.00" fill="#000000">room</text>
<text text-anchor="middle" x="96.1323" y="-59.1029" font-family="Times,serif" font-size="10.00" fill="#000000">assignments</text>
</g>
<!-- StudyRightUtils -->
<g id="node5" class="node">
<title>StudyRightUtils</title>
<polygon fill="none" stroke="#000000" points="127,-22 127,-40 198,-40 198,-22 127,-22"/>
<text text-anchor="start" x="129.995" y="-28" font-family="Times,serif" font-size="10.00" fill="#000000">StudyRightUtils</text>
<polygon fill="none" stroke="#000000" points="127,-16 127,-22 198,-22 198,-16 127,-16"/>
</g>
</g>
</svg>
